<?xml version="1.0" encoding="utf-8"?>
<!-- Generator: Adobe Illustrator 18.1.1, SVG Export Plug-In . SVG Version: 6.00 Build 0)  -->
<svg version="1.1" id="Layer_1" xmlns="http://www.w3.org/2000/svg" xmlns:xlink="http://www.w3.org/1999/xlink" x="0px" y="0px"
	 viewBox="0 0 814 264" enable-background="new 0 0 814 264" xml:space="preserve">
<path d="M117.8,86.8l-8,48.8l-15.2,8.7l-10.7-25.9L82.8,143l-11-2.9l-1.4-51.9l17.9-3.5l10.1,27.9l7.1-28.9L117.8,86.8z"/>
<path d="M172.3,112.4c0,10-2.7,17.7-8.2,23.1c-4.8,4.9-11.1,7.3-18.7,7.3c-6.9,0-12.4-2.7-16.7-8.1c-4.3-5.4-6.4-12.4-6.4-20.9
	c0-8.3,2.4-15.4,7.2-21.2c5-6,11.2-9,18.8-9c7,0,12.8,2.7,17.2,8.2C170.1,97.4,172.3,104.2,172.3,112.4z M155.5,108.4
	c0-2.3-0.8-4.3-2.5-6c-1.6-1.7-3.6-2.5-5.8-2.5s-4.2,0.8-5.8,2.5c-1.6,1.7-2.4,3.6-2.4,6c0,2.4,0.8,4.4,2.4,6
	c1.6,1.7,3.5,2.5,5.8,2.5c2.3,0,4.3-0.8,5.9-2.5C154.7,112.7,155.5,110.7,155.5,108.4z"/>
<path d="M201.8,141l-22.7,1.6l4.1-56.6l15,0.3L201.8,141z"/>
<path d="M244.4,82.7l-2.1,16.1c-2.1-1.1-4.1-1.6-6-1.6c-1.9,0-3.3,0.6-4.4,1.7c-1,0.9-1.4,1.9-1.4,3c0,1.7,1.1,3.9,3.3,6.6
	c3.9,4.7,6,7.2,6.2,7.4c2.2,3.2,3.3,6.4,3.3,9.5c0,5.4-2,9.8-6,13.1c-4,3.3-9,5-14.9,5c-2.7,0-5.4-0.4-8.1-1.1l-6.9-18.8
	c3.4,2.3,6.6,3.4,9.5,3.4c3.8,0,5.7-1.7,5.7-5.2c0-1.3-0.9-3-2.6-5c-2.7-3.1-4.3-5-4.9-5.8c-1.7-2.7-2.6-5.5-2.6-8.5
	c0-4.4,1.9-8.5,5.7-12.4c5-5.1,12.1-7.6,21.2-7.6C240.9,82.4,242.6,82.5,244.4,82.7z"/>
<path d="M299.5,86.1l-19.3,31.3l5.2,21.5l-23.8,4.9l4.3-24.8l-20.4-23.3l15-13.8l11.7,17.2l8.3-17.2L299.5,86.1z"/>
<path d="M393.8,138.4l-16.6,2.7l-1.1-27l-6.9,14.1l-10.1,0.8l-4.5-16.1l-5.6,24.8l-18.9-0.2l15.2-52.8l14.4-2.4l7.9,21.2l9.2-21.7
	l14,5.2L393.8,138.4z"/>
<path d="M554.9,86.8l-8,48.8l-15.2,8.7L521,118.4l-1.1,24.6l-11-2.9l-1.4-51.9l17.9-3.5l10.1,27.9l7.1-28.9L554.9,86.8z"/>
<path d="M613.2,129.2l-15.3,12.8l-16.1-21.1l2.2,17.3l-22,1l1.2-55.1l13.7-1.7l3.1,22.9l12.9-24.3l18.6,7.2l-18.7,23.7L613.2,129.2z
	"/>
<path d="M659.4,118.9l-4.8,23l-36.2-2.3l4.4-52.4l34.4-4.9l-6.2,18.6L637,96.3l1.1,11.8l9.5-2.6l-0.6,14.3l-8.5-1.4l0.8,10.3
	L659.4,118.9z"/>
<path d="M714.8,86.1l-19.3,31.3l5.2,21.5l-23.8,4.9l4.3-24.8l-20.4-23.3l15-13.8l11.7,17.2l8.3-17.2L714.8,86.1z"/>
<path d="M750,82.7l-2.1,16.1c-2.1-1.1-4.1-1.6-6-1.6c-1.9,0-3.3,0.6-4.4,1.7c-1,0.9-1.4,1.9-1.4,3c0,1.7,1.1,3.9,3.3,6.6
	c3.9,4.7,6,7.2,6.2,7.4c2.2,3.2,3.3,6.4,3.3,9.5c0,5.4-2,9.8-6,13.1c-4,3.3-9,5-14.9,5c-2.7,0-5.4-0.4-8.1-1.1l-6.9-18.8
	c3.4,2.3,6.6,3.4,9.5,3.4c3.8,0,5.7-1.7,5.7-5.2c0-1.3-0.9-3-2.6-5c-2.7-3.1-4.3-5-4.9-5.8c-1.7-2.7-2.6-5.5-2.6-8.5
	c0-4.4,1.9-8.5,5.7-12.4c5-5.1,12.1-7.6,21.2-7.6C746.5,82.4,748.2,82.5,750,82.7z"/>
<path d="M82,170.5l-7.8-3.3l0.4,5.6l4.7-1.2l-1.4,5.9l-3.4-0.8l1.4,7.4l-9.5,1.7l1.9-23.7l12.3,0.3L82,170.5z"/>
<path d="M105.7,181.8l-7.6,3.8l-4.2-7.5l-1.1,0.2l-1,6.1l-8.1-0.3l5.1-21c2.3-0.9,4.6-1.4,6.7-1.4c2.6,0,4.6,0.6,6.1,1.8
	c1.7,1.3,2.5,3,2.5,5.3c0,3.1-1.5,5.4-4.4,6.9L105.7,181.8z M97.6,169.5c0-0.6-0.2-1.1-0.7-1.5c-0.5-0.4-1-0.6-1.7-0.6
	c-0.2,0-0.5,0-0.7,0.1l-0.9,5c1.3,0.1,2.3-0.2,3-0.9C97.2,171.1,97.6,170.4,97.6,169.5z"/>
<path d="M123.5,175.5l-1.9,9l-14.2-0.9l1.7-20.5l13.4-1.9l-2.4,7.3l-5.4-1.8l0.4,4.6l3.7-1l-0.2,5.6l-3.3-0.6l0.3,4L123.5,175.5z"/>
<path d="M145.1,162.9l-3.1,19.1l-5.9,3.4l-4.2-10.1l-0.4,9.6l-4.3-1.1l-0.6-20.3l7-1.4l3.9,10.9l2.8-11.3L145.1,162.9z"/>
<path d="M162.2,175.2l-1.4,8c-1.4,0.8-2.9,1.2-4.6,1.2c-2.6,0-4.7-0.9-6.5-2.6c-2-2-2.9-4.6-2.9-8c0-3.7,1.2-6.7,3.7-9.1
	c2.3-2.2,5.1-3.4,8.4-3.4c0.9,0,1.9,0.1,2.9,0.4l0.4,7.9c-1-1.1-2.1-1.7-3.3-1.7c-1.2,0-2.2,0.5-3.1,1.4c-0.9,1-1.4,2.3-1.4,3.8
	c0,1.3,0.4,2.4,1.1,3.3c0.8,0.9,1.7,1.3,2.7,1.3C159.7,177.8,161,176.9,162.2,175.2z"/>
<path d="M183.8,163.7l-0.5,20.9l-7.7-0.5l1-7.2l-4,0.6v6.8l-6.7,0.4l-0.6-22.9l7.6,0.3l-0.1,8.9l4.4-1.1l0.7-6.9L183.8,163.7z"/>
<path d="M204.1,184.1l-8.9,0.6l1.6-22.1l5.9,0.1L204.1,184.1z"/>
<path d="M231.2,183.5l-6.5,1.1l-0.4-10.6l-2.7,5.5l-3.9,0.3l-1.8-6.3l-2.2,9.7l-7.4-0.1l5.9-20.6l5.6-0.9l3.1,8.3l3.6-8.5l5.5,2
	L231.2,183.5z"/>
<path d="M258.1,183.5l-6.5,1.1l-0.4-10.6l-2.7,5.5l-3.9,0.3l-1.8-6.3l-2.2,9.7l-7.4-0.1l5.9-20.6l5.6-0.9l3.1,8.3l3.6-8.5l5.5,2
	L258.1,183.5z"/>
<path d="M277.5,175.5l-1.9,9l-14.2-0.9l1.7-20.5l13.4-1.9l-2.4,7.3l-5.4-1.8l0.4,4.6l3.7-1l-0.2,5.6l-3.3-0.6l0.3,4L277.5,175.5z"/>
<path d="M301.4,181.8l-7.6,3.8l-4.2-7.5l-1.1,0.2l-1,6.1l-8.1-0.3l5.1-21c2.3-0.9,4.6-1.4,6.7-1.4c2.6,0,4.6,0.6,6.1,1.8
	c1.7,1.3,2.5,3,2.5,5.3c0,3.1-1.5,5.4-4.4,6.9L301.4,181.8z M293.3,169.5c0-0.6-0.2-1.1-0.7-1.5c-0.5-0.4-1-0.6-1.7-0.6
	c-0.2,0-0.5,0-0.7,0.1l-0.9,5c1.3,0.1,2.3-0.2,3-0.9C293,171.1,293.3,170.4,293.3,169.5z"/>
<path d="M315.7,161.3l-0.8,6.3c-0.8-0.4-1.6-0.6-2.3-0.6c-0.7,0-1.3,0.2-1.7,0.7c-0.4,0.4-0.6,0.7-0.6,1.2c0,0.7,0.4,1.5,1.3,2.6
	c1.5,1.8,2.3,2.8,2.4,2.9c0.9,1.3,1.3,2.5,1.3,3.7c0,2.1-0.8,3.8-2.4,5.1c-1.6,1.3-3.5,2-5.8,2c-1.1,0-2.1-0.1-3.2-0.4l-2.7-7.3
	c1.3,0.9,2.6,1.3,3.7,1.3c1.5,0,2.2-0.7,2.2-2c0-0.5-0.3-1.2-1-1.9c-1.1-1.2-1.7-2-1.9-2.3c-0.7-1.1-1-2.2-1-3.3
	c0-1.7,0.7-3.3,2.2-4.9c2-2,4.7-3,8.3-3C314.3,161.2,315,161.2,315.7,161.3z"/>
<path d="M327,184.1l-8.9,0.6l1.6-22.1l5.9,0.1L327,184.1z"/>
<path d="M349.1,172.9c0,3.9-1.1,6.9-3.2,9c-1.9,1.9-4.3,2.9-7.3,2.9c-2.7,0-4.9-1.1-6.5-3.2c-1.7-2.1-2.5-4.8-2.5-8.2
	c0-3.3,0.9-6,2.8-8.3c1.9-2.4,4.4-3.5,7.4-3.5c2.8,0,5,1.1,6.7,3.2C348.2,167,349.1,169.7,349.1,172.9z M342.5,171.3
	c0-0.9-0.3-1.7-1-2.3s-1.4-1-2.3-1s-1.6,0.3-2.3,1c-0.6,0.6-0.9,1.4-0.9,2.3c0,0.9,0.3,1.7,0.9,2.4c0.6,0.7,1.4,1,2.3,1
	c0.9,0,1.7-0.3,2.3-1C342.2,173,342.5,172.3,342.5,171.3z"/>
<path d="M370.5,162.9l-3.1,19.1l-5.9,3.4l-4.2-10.1l-0.4,9.6l-4.3-1.1l-0.6-20.3l7-1.4l3.9,10.9l2.8-11.3L370.5,162.9z"/>
<path d="M405.7,168.2l-2.6,10.1l-5-0.9c-0.2,2.3-1.1,4.2-2.7,5.6c-1.6,1.4-3.6,2.2-5.9,2.2c-2.2,0-4.1-0.6-5.6-1.8
	c-1.6-1.3-2.5-3-2.5-5.1c0-1.2,0.4-2.3,1.3-3.4c0.7-0.9,1.5-1.5,2.3-1.8c-2.4-1.1-3.5-2.9-3.5-5.4c0-1.8,0.7-3.4,2-4.7
	c1.5-1.5,3.4-2.2,5.7-2.2c1.5,0,3.1,0.4,4.8,1.1c1.3,0.6,2.3,1.1,2.9,1.7l-2.5,4.6c-1.1-0.8-1.9-1.2-2.6-1.2c-0.6,0-1,0.2-1.4,0.5
	c-0.3,0.3-0.5,0.7-0.5,1.2c0,0.5,0.2,1,0.7,1.4c0.5,0.5,1.2,0.7,2.1,0.9l-1,3.8c-0.9,0-1.5,0.3-2,0.7c-0.5,0.4-0.7,0.9-0.7,1.5
	c0,0.6,0.2,1.2,0.7,1.6c0.5,0.4,1,0.6,1.6,0.6c0.8,0,1.4-0.3,1.9-0.9c0.5-0.6,0.8-1.3,0.8-2.1c0-0.8-0.3-1.7-0.8-2.5L405.7,168.2z"
	/>
<path d="M431.6,175l-2.1,9l-13.2-0.6l1.2-21.1l8.8-0.7l-2.7,14.7L431.6,175z"/>
<path d="M453.8,183.4l-7.7,0.6l-0.7-6.3l-4.2,0.3l-2.2,7l-6.3-2.3l8.4-20.9l7.1-0.1L453.8,183.4z M444,173.3l-0.7-5l-1.9,5H444z"/>
<path d="M475.2,162.9l-3.1,19.1l-5.9,3.4l-4.2-10.1l-0.4,9.6l-4.3-1.1l-0.6-20.3l7-1.4l3.9,10.9l2.8-11.3L475.2,162.9z"/>
<path d="M496.3,171.6l-2.3,12.2c-2,0.9-4,1.4-6.1,1.4c-3.1,0-5.6-1-7.6-3c-2.2-2.2-3.3-5.1-3.3-8.8c0-3.8,1.1-6.7,3.2-8.9
	c2-2,4.4-3,7.3-3c2.2,0,4.2,0.6,6.1,1.8l-1.4,6.8c-1-1.3-2.2-1.9-3.6-1.9c-1.1,0-2,0.5-2.8,1.4c-0.8,0.9-1.2,2.2-1.2,3.7
	c0,1.5,0.3,2.8,0.9,3.9c0.6,1.2,1.5,1.8,2.5,1.8c0.4,0,0.8-0.1,1.3-0.3l-1.1-6.7L496.3,171.6z"/>
<path d="M518.7,162.5l-1.1,12.8c-0.3,3.3-1.5,5.7-3.5,7.4c-1.6,1.3-3.5,2-5.7,2c-5.6,0.2-8.6-2.8-9-8.9l-0.9-13.6l8.4-0.5l-0.4,12.7
	c0,1.3,0.1,2.3,0.5,2.8c0.4,0.6,1,0.8,1.7,0.8c1.5,0,2.4-1.3,2.5-3.8l0.7-12.5L518.7,162.5z"/>
<path d="M542,183.4l-7.7,0.6l-0.7-6.3l-4.2,0.3l-2.2,7l-6.3-2.3l8.4-20.9l7.1-0.1L542,183.4z M532.2,173.3l-0.7-5l-1.9,5H532.2z"/>
<path d="M563.1,171.6l-2.3,12.2c-2,0.9-4,1.4-6.1,1.4c-3.1,0-5.6-1-7.6-3c-2.2-2.2-3.3-5.1-3.3-8.8c0-3.8,1.1-6.7,3.2-8.9
	c2-2,4.4-3,7.3-3c2.2,0,4.2,0.6,6.1,1.8l-1.4,6.8c-1-1.3-2.2-1.9-3.6-1.9c-1.1,0-2,0.5-2.8,1.4c-0.8,0.9-1.2,2.2-1.2,3.7
	c0,1.5,0.3,2.8,0.9,3.9c0.6,1.2,1.5,1.8,2.5,1.8c0.4,0,0.8-0.1,1.3-0.3L555,172L563.1,171.6z"/>
<path d="M581.9,175.5l-1.9,9l-14.2-0.9l1.7-20.5l13.4-1.9l-2.4,7.3l-5.4-1.8l0.4,4.6l3.7-1l-0.2,5.6l-3.3-0.6l0.3,4L581.9,175.5z"/>
<path d="M612.6,183.4l-7.7,0.6l-0.7-6.3l-4.2,0.3l-2.2,7l-6.3-2.3l8.4-20.9l7.1-0.1L612.6,183.4z M602.7,173.3l-0.7-5l-1.9,5H602.7z
	"/>
<path d="M629.7,175.2l-1.4,8c-1.4,0.8-2.9,1.2-4.6,1.2c-2.6,0-4.7-0.9-6.5-2.6c-2-2-2.9-4.6-2.9-8c0-3.7,1.2-6.7,3.7-9.1
	c2.3-2.2,5.1-3.4,8.4-3.4c0.9,0,1.9,0.1,2.9,0.4l0.4,7.9c-0.9-1.1-2.1-1.7-3.3-1.7c-1.2,0-2.2,0.5-3.1,1.4c-0.9,1-1.4,2.3-1.4,3.8
	c0,1.3,0.4,2.4,1.1,3.3c0.7,0.9,1.7,1.3,2.7,1.3C627.2,177.8,628.5,176.9,629.7,175.2z"/>
<path d="M652.7,183.4l-7.7,0.6l-0.7-6.3l-4.2,0.3l-2.2,7l-6.3-2.3l8.4-20.9l7.1-0.1L652.7,183.4z M642.8,173.3l-0.7-5l-1.9,5H642.8z
	"/>
<path d="M672.2,171.9c0,3.6-1.2,6.6-3.6,9.1c-2.4,2.5-5.2,3.7-8.6,3.7c-1.5,0-3.1-0.3-4.6-0.9l0.1-21.2c2-0.6,3.9-0.9,5.8-0.9
	c3.1,0,5.7,0.8,7.7,2.5C671.2,166.2,672.2,168.7,672.2,171.9z M665.6,173c0-1.1-0.3-2-0.9-2.6c-0.6-0.6-1.3-0.9-2.2-0.8l-1.5,8.1
	c1.5,0.2,2.7-0.4,3.5-1.6C665.3,175.1,665.6,174.1,665.6,173z"/>
<path d="M691.4,175.5l-1.9,9l-14.2-0.9l1.7-20.5l13.4-1.9l-2.4,7.3l-5.4-1.8l0.4,4.6l3.7-1l-0.2,5.6l-3.3-0.6l0.3,4L691.4,175.5z"/>
<path d="M717.7,183.5l-6.5,1.1l-0.4-10.6l-2.7,5.5l-3.9,0.3l-1.7-6.3l-2.2,9.7l-7.4-0.1l5.9-20.6l5.6-0.9l3.1,8.3l3.6-8.5l5.5,2
	L717.7,183.5z"/>
<path d="M740.4,162.6l-7.6,12.2l2,8.4l-9.3,1.9l1.7-9.7l-8-9.1l5.8-5.4l4.6,6.7l3.2-6.7L740.4,162.6z"/>
<g>
	<g>
		<path d="M435.3,109.5c1.4,0,1.4-2.1,0-2.1C433.9,107.4,433.9,109.5,435.3,109.5L435.3,109.5z"/>
	</g>
	<path d="M438.9,148.5c-3.8-1.4-7.4-3.8-9.3-7.4c-2.1-3.9-1.9-8.6-3.2-12.8c-2-6.5-7.5-11.7-8.1-18.4c-4.2,0.8-8.7,0.6-12.4-1.5
		c-3.7-2.1-5.8-6.3-5.2-10.5c0.5-4,3.3-7.2,7.1-8.5c3.8-1.3,8-0.8,11.9,0.2c1.8-4.1,9.8-14.6,30-14.6c14.2,0,26.4,9.5,28.8,16.1
		c4.3-2.6,10.5-1.4,13.6,2.5s2.8,10.2-0.6,13.9c-3.5,3.6-9.7,4.2-13.8,1.3c0.5,5.2-1,10.5-4,14.7c-1.5,2.1-3.5,4-4.6,6.4
		c-1,2.2-1.2,4.6-1.9,6.9c-1.7,5.5-6.2,9.9-11.5,11.9C450.3,150.7,444.2,150.5,438.9,148.5z"/>
	<path fill="#FFFFFF" d="M462.2,118.8c-6.7-6.5-24.6-4.9-31,1.9c-3.9-3.2-6.5-8.1-6.4-13.2s3.4-10,8.2-11.6
		c4.8-1.6,10.7,0.8,12.6,5.5c2.2-3.9,5.3-7.4,9.3-9.2c4-1.8,9.1-1.7,12.6,1c3.4,2.7,3.9,7.4,4,11.7
		C471.6,113.5,462.2,118.8,462.2,118.8z"/>
	<g>
		<path d="M437.4,104.6c-2.8-0.8-3.8,2.1-3.7,4.3c-0.1,1,0.4,2.1,0.9,2.8c0.6,0.9,1.8,1.3,2.9,1.2c1.2-0.1,2-1.2,2.3-2.3
			C440.3,108.5,439.7,105.3,437.4,104.6z"/>
		<path d="M459.2,104.7c-2.4-1-4.1,1.2-4.6,3.3c-0.4,1.3-0.4,3,0.6,4.1c0.8,0.9,2.4,1,3.4,0.4c0.8-0.4,1.6-1.6,1.9-2.7
			C461.2,108,461,105.5,459.2,104.7z"/>
	</g>
	<g>
		<ellipse fill="#F6AAAC" cx="411.9" cy="100" rx="7.4" ry="7.2"/>
		<ellipse fill="#F6AAAC" cx="483.6" cy="100" rx="7.4" ry="7.2"/>
		<ellipse fill="#F6AAAC" cx="448.1" cy="131.9" rx="18.2" ry="15"/>
		<path fill="#F6AAAC" d="M440.3,91.5c2.4,0.2,3.6-1.9,2.1-3.8c-2-2.5-6-2.9-8.9-2.5c-3.6,0.5-6.8,2.2-9.2,5c-0.9,1,0.6,2.5,1.5,1.5
			c0,0,0,0,0.1-0.1c0,0,0,0,0.1,0C430.6,88,435.3,91,440.3,91.5z"/>
		<path fill="#F6AAAC" d="M450.8,85.3c-0.5,0.5-0.3,1.2,0.1,1.6c0.3,0.6,1.1,0.9,1.7,0.3c2.5-2.5,5.6-2.6,8.6-1.1
			c2,1.1,3.8,2.2,6.1,2.4c0.8,0.1,1.3-1,0.9-1.6C464.5,80.5,455.7,79.6,450.8,85.3z"/>
	</g>
	<path d="M456.8,134.8c-3.3-0.8-6.1,2-5.3,5.3c0.8,3.1,4.9,4.2,7.2,2c0.7-0.7,1.1-1.5,1.2-2.4C460.2,137.7,459,135.4,456.8,134.8z"
		/>
	<g>
		<path fill="#FFFFFF" d="M443.9,119.6c-0.3-0.1-0.8-0.2-1.2,0c-0.8,0.2-1.3,0.9-1.4,1.7c0,0.9,0.6,1.7,1.4,1.9
			c1.6,0.5,3-1.2,2.3-2.7C444.7,119.9,444.3,119.7,443.9,119.6z"/>
		<path fill="#FFFFFF" d="M449.2,119.6c-1.7,0.3-2,2.6-0.6,3.5c0.1,0.1,0.3,0.2,0.5,0.2c0.8,0.6,1.8,0.1,2.3-0.7
			C452.3,121.1,451,119.2,449.2,119.6z"/>
	</g>
</g>
</svg>
