<?xml version="1.0" encoding="utf-8"?>
<!-- Generator: Adobe Illustrator 18.1.1, SVG Export Plug-In . SVG Version: 6.00 Build 0)  -->
<svg version="1.1" id="Layer_1" xmlns="http://www.w3.org/2000/svg" xmlns:xlink="http://www.w3.org/1999/xlink" x="0px" y="0px"
	 viewBox="0 0 175 174" enable-background="new 0 0 175 174" xml:space="preserve">
<g>
	<g>
		<path d="M73.6,82.7c1.4,0,1.4-2.1,0-2.1C72.2,80.6,72.2,82.7,73.6,82.7L73.6,82.7z"/>
	</g>
	<path d="M77.1,121.7c-3.8-1.4-7.4-3.8-9.3-7.4c-2.1-3.9-1.9-8.6-3.2-12.8c-2-6.5-7.5-11.7-8.1-18.4c-4.2,0.8-8.7,0.6-12.4-1.5
		c-3.7-2.1-5.8-6.3-5.2-10.5c0.5-4,3.3-7.2,7.1-8.5c3.8-1.3,8-0.8,11.9,0.2c1.8-4.1,9.8-14.6,30-14.6c14.2,0,26.4,9.5,28.8,16.1
		c4.3-2.6,10.5-1.4,13.6,2.5c3.1,4,2.8,10.2-0.6,13.9c-3.5,3.6-9.7,4.2-13.8,1.3c0.5,5.2-1,10.5-4,14.7c-1.5,2.1-3.5,4-4.6,6.4
		c-1,2.2-1.2,4.6-1.9,6.9c-1.7,5.5-6.2,9.9-11.5,11.9S82.5,123.6,77.1,121.7z"/>
	<path fill="#FFFFFF" d="M100.5,92c-6.7-6.5-24.6-4.9-31,1.9c-3.9-3.2-6.5-8.1-6.4-13.2c0.2-5,3.4-10,8.2-11.6S82,70,83.9,74.7
		c2.2-3.9,5.3-7.4,9.3-9.2c4-1.8,9.1-1.7,12.6,1c3.4,2.7,3.9,7.4,4,11.7C109.9,86.7,100.5,92,100.5,92z"/>
	<g>
		<path d="M75.7,77.8c-2.8-0.8-3.8,2.1-3.7,4.3c-0.1,1,0.4,2.1,0.9,2.8c0.6,0.9,1.8,1.3,2.9,1.2c1.2-0.1,2-1.2,2.3-2.3
			C78.6,81.7,78,78.5,75.7,77.8z"/>
		<path d="M97.5,77.9c-2.4-1-4.1,1.2-4.6,3.3c-0.4,1.3-0.4,3,0.6,4.1c0.8,0.9,2.4,1,3.4,0.4c0.8-0.4,1.6-1.6,1.9-2.7
			C99.5,81.1,99.3,78.7,97.5,77.9z"/>
	</g>
	<g>
		<ellipse fill="#F6AAAC" cx="50.2" cy="73.1" rx="7.4" ry="7.2"/>
		<ellipse fill="#F6AAAC" cx="121.9" cy="73.1" rx="7.4" ry="7.2"/>
		<ellipse fill="#F6AAAC" cx="86.4" cy="105.1" rx="18.2" ry="15"/>
		<path fill="#F6AAAC" d="M78.6,64.6c2.4,0.2,3.6-1.9,2.1-3.8c-2-2.5-6-2.9-8.9-2.5c-3.6,0.5-6.8,2.2-9.2,5c-0.9,1,0.6,2.5,1.5,1.5
			c0,0,0,0,0.1-0.1c0,0,0,0,0.1,0C68.9,61.2,73.6,64.2,78.6,64.6z"/>
		<path fill="#F6AAAC" d="M89.1,58.5c-0.5,0.5-0.3,1.2,0.1,1.6c0.3,0.6,1.1,0.9,1.7,0.3c2.5-2.5,5.6-2.6,8.6-1.1
			c2,1.1,3.8,2.2,6.1,2.4c0.8,0.1,1.3-1,0.9-1.6C102.8,53.7,94,52.8,89.1,58.5z"/>
	</g>
	<path d="M95.1,108c-3.3-0.8-6.1,2-5.3,5.3c0.8,3.1,4.9,4.2,7.2,2c0.7-0.7,1.1-1.5,1.2-2.4C98.5,110.8,97.3,108.6,95.1,108z"/>
	<g>
		<path fill="#FFFFFF" d="M82.1,92.7c-0.3-0.1-0.8-0.2-1.2,0c-0.8,0.2-1.3,0.9-1.4,1.7c0,0.9,0.6,1.7,1.4,1.9c1.6,0.5,3-1.2,2.3-2.7
			C83,93.1,82.6,92.8,82.1,92.7z"/>
		<path fill="#FFFFFF" d="M87.5,92.7c-1.7,0.3-2,2.6-0.6,3.5c0.1,0.1,0.3,0.2,0.5,0.2c0.8,0.6,1.8,0.1,2.3-0.7
			C90.6,94.3,89.3,92.4,87.5,92.7z"/>
	</g>
</g>
</svg>
